Coordinates
version=1
nRows=17
nColumns=36
inDegrees=yes

Units are S.I. units (second, meters, Newtons, ...)
If the header above contains a line with 'inDegrees', this indicates whether rotational values are in degrees (yes) or radians (no).

endheader
time	pelvis_tilt	pelvis_list	pelvis_rotation	pelvis_tx	pelvis_ty	pelvis_tz	hip_flexion_r	hip_adduction_r	hip_rotation_r	knee_angle_r	knee_angle_r_beta	ankle_angle_r	subtalar_angle_r	mtp_angle_r	hip_flexion_l	hip_adduction_l	hip_rotation_l	knee_angle_l	knee_angle_l_beta	ankle_angle_l	subtalar_angle_l	mtp_angle_l	lumbar_extension	lumbar_bending	lumbar_rotation	arm_flex_r	arm_add_r	arm_rot_r	elbow_flex_r	pro_sup_r	arm_flex_l	arm_add_l	arm_rot_l	elbow_flex_l	pro_sup_l
     -0.33000000	     -3.92032330	     -2.06651267	      1.57588908	     -0.44184252	      1.13695579	     -0.28140639	     28.65710496	      0.56607771	     -4.36213134	     29.67768986	      0.51797340	      1.49863540	    -21.22942430	     -7.48291048	     -1.17550877	      1.39250470	    -10.10759361	      5.90308963	      0.10302835	      7.55563239	     -3.07635212	     -7.48291048	    -15.12117619	    -11.09423399	     -7.75076642	     -6.86706461	     -2.95230335	     -9.99480424	     32.83054925	     91.98192615	      2.22594202	    -11.17315434	    -19.80683114	     41.82493818	     95.67774740
     -0.32000000	     -3.37473876	     -2.13483040	      1.68353526	     -0.43121991	      1.13769084	     -0.28246129	     28.10523407	      0.59524372	     -4.46346665	     27.46397769	      0.47933684	      1.79997314	    -20.12482503	     -7.48308682	     -2.67153713	      1.41601313	    -10.14050600	      5.49006931	      0.09581979	      7.06934918	     -3.01026851	     -7.48308682	    -15.54490215	    -10.49849689	     -7.79186938	     -6.76509078	     -3.04577533	    -10.04854286	     32.61150150	     92.41861736	      2.18222339	    -11.01451881	    -19.81390437	     41.35318137	     96.21101058
     -0.31000000	     -3.02876970	     -2.14176446	      1.71938675	     -0.42082500	      1.13741953	     -0.28314732	     27.74315422	      0.61831412	     -4.52954464	     25.20311057	      0.43987726	      1.96881976	    -19.27702934	     -7.48551441	     -4.01404726	      1.51847200	    -10.35591431	      5.04551321	      0.08806082	      6.54793684	     -2.76324745	     -7.48551441	    -15.68600925	    -10.02558446	     -7.75501051	     -6.78003516	     -3.13343130	     -9.78012711	     32.39996097	     91.45604053	      2.00913739	    -10.92936544	    -19.47256038	     40.97063017	     95.27257564
     -0.30000000	     -2.65314083	     -2.15728119	      1.73810822	     -0.41085479	      1.13631698	     -0.28369741	     27.34459245	      0.66951113	     -4.72002475	     22.91458805	      0.39993501	      2.33622608	    -18.23060595	     -7.48601013	     -5.42811662	      1.63430654	    -10.37558944	      4.54982601	      0.07940944	      5.94728509	     -2.82456748	     -7.48601013	    -15.90862521	     -9.48469524	     -7.70389629	     -6.82968940	     -3.27408140	     -9.85446584	     32.42688377	     92.37930228	      1.86022834	    -10.74294100	    -19.57299874	     40.62033520	     96.35462500
     -0.29000000	     -2.37537434	     -2.15835063	      1.73913436	     -0.40131613	      1.13414430	     -0.28392057	     27.06418060	      0.75958073	     -4.94777639	     20.59527850	      0.35945542	      2.70533327	    -17.19239092	     -7.48676623	     -6.69781959	      1.75230913	    -10.53500297	      4.11164260	      0.07176170	      5.62397016	     -2.65414402	     -7.48676623	    -16.01570763	     -9.00561551	     -7.73051095	     -6.79018362	     -3.36298894	     -9.85650760	     32.27007553	     93.02883330	      1.61122391	    -10.60836350	    -19.78260956	     40.33702444	     97.19530783
     -0.28000000	     -2.08774902	     -2.17043024	      1.76241954	     -0.39221909	      1.13110368	     -0.28401901	     26.79855249	      0.87832248	     -5.33109871	     18.27349540	      0.31893266	      3.22740329	    -15.91224020	     -7.48788632	     -7.93034819	      1.84854840	    -10.57209483	      3.68170609	      0.06425789	      5.53008037	     -2.62827039	     -7.48788632	    -16.21932608	     -8.49879591	     -7.71089626	     -6.82279801	     -3.51950379	     -9.59351682	     32.35144048	     92.96944614	      1.46989206	    -10.54731144	    -19.59769516	     40.01297196	     97.13129791
     -0.27000000	     -1.95075527	     -2.13039055	      1.71357516	     -0.38330495	      1.12710376	     -0.28385810	     26.77929199	      1.01416726	     -5.63490311	     16.06558679	      0.28039739	      3.75508473	    -14.62767055	     -7.48914800	     -8.93636661	      1.98728795	    -10.74714448	      3.28207451	      0.05728301	      5.94229278	     -2.39922210	     -7.48914800	    -16.24623658	     -8.10998851	     -7.63331648	     -6.77809156	     -3.59998327	     -9.51360220	     32.14204706	     92.59159104	      1.31695023	    -10.50992581	    -19.45755385	     39.76790699	     96.71057011
     -0.26000000	     -1.78438435	     -2.08036727	      1.72407155	     -0.37449898	      1.12276296	     -0.28379035	     26.76547315	      1.13192354	     -6.08002576	     13.94084340	      0.24331362	      4.36364687	    -13.12021211	     -7.48930832	     -9.89425711	      2.11415930	    -10.71572910	      2.90970314	      0.05078390	      6.69559770	     -2.37205282	     -7.48930832	    -16.38823609	     -7.70990005	     -7.69322401	     -6.74954157	     -3.73518509	     -9.21702706	     32.22638460	     92.66605297	      1.18740054	    -10.53846339	    -19.31956420	     39.52986822	     96.81477247
     -0.25000000	     -1.79190015	     -1.95510035	      1.65194301	     -0.36548070	      1.11805589	     -0.28358830	     27.02308513	      1.23633457	     -6.30127311	     12.01283290	      0.20966349	      4.78388227	    -11.84717993	     -7.49013801	    -10.59990489	      2.30714875	    -10.97425918	      2.59095976	      0.04522078	      8.01944417	     -1.83234425	     -7.49013801	    -16.30995201	     -7.47477534	     -7.65154123	     -6.64863423	     -3.73164068	     -9.39525769	     31.93643917	     93.17065484	      1.05759321	    -10.53805650	    -19.45330604	     39.39132608	     97.28268977
     -0.24000000	     -1.78149144	     -1.80353075	      1.60375832	     -0.35616983	      1.11360753	     -0.28357079	     27.30263858	      1.29226414	     -6.64626540	     10.28825211	      0.17956387	      5.29631565	    -10.28929480	     -7.49113241	    -11.29098144	      2.51993809	    -11.14519621	      2.27315687	      0.03967407	      9.50682497	     -1.40115435	     -7.49113241	    -16.28339595	     -7.24975797	     -7.64489606	     -6.61544703	     -3.79270402	     -9.21335130	     31.89694134	     92.68120877	      1.00265349	    -10.63401259	    -19.19627595	     39.10054202	     96.70281390
     -0.23000000	     -1.71936049	     -1.63033260	      1.58399041	     -0.34658069	      1.10967730	     -0.28370665	     27.53454123	      1.32197947	     -6.87381281	      8.72491296	      0.15227846	      5.57358492	     -8.99441128	     -7.49172857	    -12.00596167	      2.74810151	    -11.04280718	      1.99163952	      0.03476067	     10.92099702	     -1.41377691	     -7.49172857	    -16.35308545	     -7.03469458	     -7.71907212	     -6.57092365	     -3.96485453	     -8.65958726	     31.91291711	     91.79193336	      0.91502334	    -10.77349652	    -18.85292315	     38.93268077	     95.68800980
     -0.22000000	     -1.85480424	     -1.44340374	      1.48890562	     -0.33654465	      1.10592008	     -0.28371264	     28.03282343	      1.35581874	     -6.93532870	      7.46578795	      0.13030258	      5.78282276	     -7.76967147	     -7.49264111	    -12.49637304	      2.98958425	    -11.49999946	      1.77154327	      0.03091926	     12.54126666	     -0.62441587	     -7.49264111	    -16.14412838	     -6.88141134	     -7.71179760	     -6.45580460	     -3.91165876	     -8.70265713	     31.63028703	     91.74234753	      0.82224566	    -10.80582109	    -18.84170442	     38.69306016	     95.59791365
     -0.21000000	     -1.90922347	     -1.28757136	      1.44586068	     -0.32634387	      1.10270157	     -0.28369281	     28.42488693	      1.40012933	     -6.94433910	      6.38203220	      0.11138747	      5.79251582	     -6.74440108	     -7.49358837	    -13.06025588	      3.17826064	    -11.71727465	      1.61969038	      0.02826893	     13.95795227	     -0.29986436	     -7.49358837	    -16.05348097	     -6.68130592	     -7.77526933	     -6.37480223	     -3.96142005	     -8.46096467	     31.50754308	     91.40681427	      0.72268864	    -10.89842976	    -18.68576319	     38.49754620	     95.14143977
     -0.20000000	     -1.99581504	     -1.17290685	      1.38988342	     -0.31598768	      1.09970464	     -0.28360334	     28.84934786	      1.47479120	     -6.87068024	      5.53347492	      0.09657736	      5.80530313	     -5.75597170	     -7.49442392	    -13.58773426	      3.32173182	    -11.95406722	      1.52962662	      0.02669702	     15.16197703	     -0.04731398	     -7.49442392	    -15.90228175	     -6.42213179	     -7.80592965	     -6.31954221	     -4.02563885	     -8.28389770	     31.38518203	     91.28212179	      0.60263181	    -10.91767972	    -18.66239579	     38.29426519	     94.96900668
     -0.19000000	     -2.09807405	     -1.09645255	      1.33922404	     -0.30557527	      1.09682947	     -0.28338379	     29.26875000	      1.58081378	     -6.60906274	      4.88184360	      0.08520424	      5.68989578	     -5.04054305	     -7.49524461	    -14.10409564	      3.41045131	    -12.22852799	      1.49213929	      0.02604274	     16.18808236	      0.24692227	     -7.49524461	    -15.69546114	     -6.11500195	     -7.82365547	     -6.27456965	     -4.08967107	     -8.15520535	     31.24800357	     90.99819850	      0.47283733	    -10.92194241	    -18.57418137	     38.02911101	     94.58970562
     -0.18000000	     -2.23085538	     -1.09252400	      1.31855855	     -0.29520858	      1.09395914	     -0.28309522	     29.72750915	      1.72470995	     -6.44180493	      4.48021841	      0.07819456	      5.64514112	     -4.26395283	     -7.49664212	    -14.57589617	      3.40677723	    -12.30660225	      1.50913802	      0.02633943	     16.97746598	      0.17117132	     -7.49664212	    -15.52405851	     -5.69940274	     -7.85139498	     -6.32412977	     -4.05957670	     -8.77635687	     31.37305200	     93.05390460	      0.36002266	    -10.78707727	    -19.17186669	     37.85989518	     96.84402605
     -0.17000000	     -2.37396162	     -1.11410446	      1.27697495	     -0.28481498	      1.09111252	     -0.28270952	     30.19846874	      1.90418476	     -5.95802359	      4.30686390	      0.07516896	      5.49549175	     -3.94793751	     -7.49666122	    -15.04003216	      3.37039197	    -12.33719314	      1.55585611	      0.02715481	     17.56250662	     -0.00128575	     -7.49666122	    -15.32866314	     -5.27066027	     -7.85831748	     -6.31405929	     -4.12582673	     -8.78302757	     31.37135697	     93.04253383	      0.17527941	    -10.74024297	    -19.17081655	     37.75348980	     96.83183741
